<svg data-v-423bf9ae="" xmlns="http://www.w3.org/2000/svg" viewBox="0 0 498 90" class="iconLeft"><!----><!----><!----><g data-v-423bf9ae="" id="49ae282b-a83d-428b-a945-34d6607d550f" fill="#213210" transform="matrix(5.8365760270947415,0,0,5.8365760270947415,114.59545362631667,14.708172416800693)"><path d="M3.58 10.33L3.58 10.33Q2.86 10.33 2.29 10.18Q1.72 10.03 1.31 9.70Q0.89 9.37 0.62 8.85Q0.35 8.33 0.21 7.58L0.21 7.58L2.21 7.29Q2.28 7.69 2.41 7.97Q2.53 8.24 2.70 8.42Q2.88 8.59 3.10 8.67Q3.33 8.75 3.60 8.75L3.60 8.75Q4.20 8.75 4.51 8.35Q4.82 7.94 4.82 7.19L4.82 7.19L4.82 2.14L2.90 2.14L2.90 0.56L6.83 0.56L6.83 7.14Q6.83 7.88 6.62 8.47Q6.41 9.06 5.99 9.47Q5.58 9.88 4.97 10.11Q4.37 10.33 3.58 10.33ZM17.77 10.19L15.39 10.19L11.93 5.77L10.74 6.68L10.74 10.19L8.72 10.19L8.72 0.56L10.74 0.56L10.74 4.93L15.08 0.56L17.43 0.56L13.32 4.63L17.77 10.19ZM25.11 5.37L25.11 5.37Q25.11 6.75 24.86 7.70Q24.60 8.65 24.15 9.23Q23.71 9.82 23.10 10.07Q22.48 10.33 21.76 10.33L21.76 10.33Q21.03 10.33 20.43 10.08Q19.82 9.82 19.38 9.24Q18.94 8.65 18.70 7.71Q18.45 6.76 18.45 5.37L18.45 5.37Q18.45 3.92 18.69 2.96Q18.94 2.01 19.38 1.44Q19.82 0.88 20.44 0.65Q21.06 0.42 21.81 0.42L21.81 0.42Q22.52 0.42 23.12 0.65Q23.73 0.88 24.17 1.44Q24.61 2.01 24.86 2.96Q25.11 3.92 25.11 5.37ZM23.18 5.37L23.18 5.37Q23.18 4.35 23.11 3.69Q23.03 3.02 22.87 2.63Q22.70 2.24 22.44 2.08Q22.18 1.92 21.80 1.92L21.80 1.92Q21.40 1.92 21.12 2.08Q20.85 2.24 20.68 2.64Q20.51 3.04 20.44 3.70Q20.37 4.37 20.37 5.37L20.37 5.37Q20.37 6.36 20.45 7.03Q20.52 7.69 20.69 8.09Q20.85 8.49 21.12 8.65Q21.38 8.82 21.77 8.82L21.77 8.82Q22.15 8.82 22.42 8.65Q22.68 8.49 22.85 8.09Q23.02 7.69 23.10 7.03Q23.18 6.36 23.18 5.37ZM33.04 7.48L33.04 7.48Q33.04 8.10 32.83 8.62Q32.63 9.15 32.20 9.53Q31.78 9.91 31.13 10.12Q30.48 10.33 29.59 10.33L29.59 10.33Q28.70 10.33 28.04 10.12Q27.39 9.91 26.96 9.53Q26.54 9.15 26.33 8.63Q26.13 8.11 26.13 7.49L26.13 7.49Q26.13 6.97 26.29 6.56Q26.46 6.15 26.73 5.86Q27.00 5.56 27.36 5.39Q27.71 5.22 28.09 5.15L28.09 5.15L28.09 5.13Q27.69 5.04 27.36 4.83Q27.04 4.63 26.82 4.34Q26.59 4.05 26.47 3.70Q26.35 3.35 26.35 2.97L26.35 2.97Q26.35 2.39 26.56 1.92Q26.77 1.45 27.17 1.11Q27.58 0.78 28.17 0.60Q28.77 0.42 29.56 0.42L29.56 0.42Q30.40 0.42 31.01 0.60Q31.62 0.79 32.02 1.13Q32.42 1.47 32.61 1.94Q32.80 2.41 32.80 2.98L32.80 2.98Q32.80 3.36 32.68 3.71Q32.56 4.06 32.33 4.35Q32.11 4.63 31.78 4.83Q31.46 5.03 31.05 5.11L31.05 5.11L31.05 5.14Q31.47 5.21 31.84 5.39Q32.20 5.57 32.47 5.86Q32.74 6.15 32.89 6.56Q33.04 6.97 33.04 7.48ZM30.82 3.08L30.82 3.08Q30.82 2.80 30.76 2.55Q30.70 2.31 30.56 2.14Q30.41 1.96 30.17 1.86Q29.93 1.76 29.56 1.76L29.56 1.76Q29.20 1.76 28.96 1.86Q28.72 1.96 28.58 2.14Q28.44 2.31 28.38 2.55Q28.31 2.80 28.31 3.08L28.31 3.08Q28.31 3.34 28.37 3.58Q28.42 3.83 28.55 4.02Q28.69 4.22 28.94 4.34Q29.18 4.46 29.57 4.46L29.57 4.46Q29.98 4.46 30.23 4.34Q30.48 4.22 30.61 4.02Q30.74 3.82 30.78 3.58Q30.82 3.33 30.82 3.08ZM31.05 7.32L31.05 7.32Q31.05 7.03 30.98 6.75Q30.92 6.48 30.75 6.27Q30.58 6.06 30.29 5.94Q30.00 5.81 29.54 5.81L29.54 5.81Q29.13 5.81 28.86 5.94Q28.58 6.06 28.41 6.28Q28.25 6.49 28.17 6.76Q28.10 7.04 28.10 7.35L28.10 7.35Q28.10 7.71 28.17 8.01Q28.25 8.31 28.42 8.53Q28.59 8.74 28.88 8.86Q29.17 8.98 29.60 8.98L29.60 8.98Q30.03 8.98 30.31 8.86Q30.59 8.74 30.75 8.52Q30.92 8.30 30.98 7.99Q31.05 7.69 31.05 7.32ZM37.47 10.33L37.47 10.33Q36.67 10.33 36.04 10.09Q35.40 9.86 34.95 9.38Q34.49 8.89 34.25 8.17Q34.02 7.44 34.02 6.46L34.02 6.46Q34.02 5.40 34.30 4.68Q34.58 3.95 35.06 3.50Q35.55 3.06 36.18 2.86Q36.80 2.66 37.50 2.66L37.50 2.66Q38.38 2.66 39.00 2.96Q39.61 3.27 40.01 3.81Q40.41 4.36 40.59 5.12Q40.78 5.89 40.78 6.81L40.78 6.81L40.78 6.86L36.03 6.86Q36.03 7.33 36.11 7.73Q36.20 8.13 36.38 8.42Q36.57 8.71 36.86 8.88Q37.15 9.04 37.57 9.04L37.57 9.04Q38.08 9.04 38.40 8.83Q38.72 8.61 38.86 8.16L38.86 8.16L40.67 8.32Q40.54 8.63 40.32 8.99Q40.10 9.34 39.73 9.64Q39.36 9.94 38.81 10.13Q38.26 10.33 37.47 10.33ZM37.47 3.87L37.47 3.87Q37.18 3.87 36.92 3.97Q36.67 4.07 36.48 4.28Q36.29 4.50 36.18 4.84Q36.06 5.18 36.05 5.66L36.05 5.66L38.92 5.66Q38.86 4.76 38.49 4.32Q38.11 3.87 37.47 3.87ZM48.88 10.19L47.02 10.19Q47.01 10.14 46.99 10.00Q46.98 9.86 46.96 9.68Q46.94 9.50 46.93 9.32Q46.92 9.13 46.92 8.99L46.92 8.99L46.89 8.99Q46.56 9.71 45.96 10.02Q45.36 10.33 44.53 10.33L44.53 10.33Q43.83 10.33 43.32 10.04Q42.81 9.75 42.48 9.24Q42.15 8.73 41.99 8.03Q41.83 7.33 41.83 6.50L41.83 6.50Q41.83 5.66 42.00 4.96Q42.16 4.25 42.51 3.74Q42.86 3.23 43.40 2.95Q43.93 2.66 44.67 2.66L44.67 2.66Q45.04 2.66 45.37 2.73Q45.71 2.81 45.99 2.97Q46.28 3.12 46.51 3.37Q46.74 3.62 46.91 3.96L46.91 3.96L46.92 3.96Q46.92 3.90 46.92 3.76Q46.92 3.63 46.92 3.46Q46.92 3.29 46.91 3.10Q46.91 2.92 46.91 2.75L46.91 2.75L46.91 0.05L48.83 0.05L48.83 8.58Q48.83 9.12 48.85 9.54Q48.87 9.96 48.88 10.19L48.88 10.19ZM46.94 6.45L46.94 6.45Q46.94 5.72 46.80 5.24Q46.66 4.76 46.44 4.47Q46.22 4.19 45.93 4.08Q45.65 3.96 45.36 3.96L45.36 3.96Q44.99 3.96 44.70 4.11Q44.42 4.25 44.23 4.56Q44.03 4.87 43.93 5.35Q43.83 5.82 43.83 6.50L43.83 6.50Q43.83 9.02 45.34 9.02L45.34 9.02Q45.63 9.02 45.92 8.89Q46.20 8.77 46.43 8.48Q46.66 8.18 46.80 7.69Q46.94 7.19 46.94 6.45ZM52.71 1.46L50.78 1.46L50.78 0.05L52.71 0.05L52.71 1.46ZM52.71 10.19L50.78 10.19L50.78 2.80L52.71 2.80L52.71 10.19ZM56.57 10.32L56.57 10.32Q55.72 10.32 55.26 9.85Q54.80 9.39 54.80 8.46L54.80 8.46L54.80 4.09L53.87 4.09L53.87 2.80L54.90 2.80L55.50 1.06L56.70 1.06L56.70 2.80L58.11 2.80L58.11 4.09L56.70 4.09L56.70 7.94Q56.70 8.48 56.91 8.73Q57.11 8.99 57.54 8.99L57.54 8.99Q57.72 8.99 57.87 8.96Q58.01 8.93 58.19 8.89L58.19 8.89L58.19 10.08Q57.83 10.20 57.44 10.26Q57.04 10.32 56.57 10.32ZM65.57 8.03L65.57 8.03Q65.57 8.57 65.35 8.99Q65.13 9.41 64.70 9.71Q64.28 10.01 63.66 10.17Q63.05 10.33 62.26 10.33L62.26 10.33Q61.56 10.33 60.99 10.23Q60.42 10.12 60.00 9.89Q59.57 9.65 59.28 9.28Q58.99 8.90 58.85 8.35L58.85 8.35L60.54 8.09Q60.62 8.40 60.76 8.59Q60.91 8.78 61.12 8.89Q61.33 8.99 61.62 9.02Q61.90 9.06 62.26 9.06L62.26 9.06Q62.59 9.06 62.87 9.02Q63.16 8.98 63.37 8.89Q63.57 8.80 63.69 8.63Q63.81 8.46 63.81 8.21L63.81 8.21Q63.81 7.92 63.64 7.76Q63.47 7.59 63.18 7.48Q62.89 7.38 62.50 7.30Q62.10 7.22 61.66 7.12L61.66 7.12Q61.20 7.01 60.74 6.87Q60.29 6.73 59.94 6.48Q59.58 6.23 59.36 5.85Q59.14 5.48 59.14 4.89L59.14 4.89Q59.14 4.37 59.35 3.95Q59.55 3.54 59.95 3.25Q60.35 2.96 60.93 2.81Q61.52 2.65 62.28 2.65L62.28 2.65Q62.88 2.65 63.40 2.77Q63.92 2.88 64.33 3.12Q64.74 3.36 65.01 3.74Q65.29 4.12 65.40 4.65L65.40 4.65L63.70 4.83Q63.65 4.56 63.53 4.39Q63.40 4.21 63.22 4.11Q63.04 4.01 62.80 3.97Q62.56 3.93 62.28 3.93L62.28 3.93Q61.59 3.93 61.25 4.10Q60.91 4.28 60.91 4.69L60.91 4.69Q60.91 4.94 61.05 5.09Q61.19 5.24 61.44 5.34Q61.70 5.44 62.05 5.51Q62.41 5.58 62.82 5.69L62.82 5.69Q63.33 5.80 63.83 5.94Q64.33 6.09 64.71 6.35Q65.10 6.60 65.33 7.01Q65.57 7.41 65.57 8.03Z"></path></g><defs data-v-423bf9ae=""><linearGradient data-v-423bf9ae="" gradientTransform="rotate(25)" id="38e82dab-38b3-4c4a-a5f1-8e58aa797253" x1="0%" y1="0%" x2="100%" y2="0%"><stop data-v-423bf9ae="" offset="0%" style="stop-color: rgb(102, 108, 53); stop-opacity: 1;"></stop><stop data-v-423bf9ae="" offset="100%" style="stop-color: rgb(119, 214, 54); stop-opacity: 1;"></stop></linearGradient></defs><g data-v-423bf9ae="" id="b432c163-d918-4a71-8a29-e8ff577310a9" transform="matrix(2.994410458179972,0,0,2.994410458179972,0.08943266912044834,-1.9385669710569857)" stroke="none" fill="url(#38e82dab-38b3-4c4a-a5f1-8e58aa797253)"><path d="M17.572 23.933l4.106 7.095L32 13.189h-8.981V7.582L11.51.972 0 7.582v13.222l11.51 6.611 6.062-3.482zm10.96-8.744l-6.855 11.846-6.855-11.846h13.71z"></path></g><!----></svg>